HIERARCHY
ROOT Hips
{
 OFFSET 0.000000 0.000000 0.000000
 CHANNELS 6 Xposition Yposition Zposition Yrotation Xrotation Zrotation
 JOINT Chest
 {
  OFFSET 0.000000 14.374500 -0.011500
  CHANNELS 3 Yrotation Xrotation Zrotation
  JOINT Chest2
  {
   OFFSET 0.000000 9.203400 0.023400
   CHANNELS 3 Yrotation Xrotation Zrotation
   JOINT Chest3
   {
    OFFSET 0.000000 9.162700 0.000000
    CHANNELS 3 Yrotation Xrotation Zrotation
    JOINT Chest4
    {
     OFFSET 0.000000 9.153300 0.000000
     CHANNELS 3 Yrotation Xrotation Zrotation
     JOINT Neck
     {
      OFFSET 0.000000 13.353600 0.000000
      CHANNELS 3 Yrotation Xrotation Zrotation
      JOINT Head
      {
       OFFSET 0.000000 8.573800 0.049400
       CHANNELS 3 Yrotation Xrotation Zrotation
       End Site
       {
        OFFSET 0.000000 16.219200 0.026100
       }
      }
     }
     JOINT RightCollar
     {
      OFFSET -2.497100 8.876100 0.000000
      CHANNELS 3 Yrotation Xrotation Zrotation
      JOINT RightShoulder
      {
       OFFSET -12.289200 0.000000 0.000000
       CHANNELS 3 Yrotation Xrotation Zrotation
       JOINT RightElbow
       {
        OFFSET 0.000000 -28.194900 0.000000
        CHANNELS 3 Yrotation Xrotation Zrotation
        JOINT RightWrist
        {
         OFFSET 0.000000 -23.009700 0.007900
         CHANNELS 3 Yrotation Xrotation Zrotation
         End Site
         {
          OFFSET 0.000000 -17.151500 0.000000
         }
        }
       }
      }
     }
     JOINT LeftCollar
     {
      OFFSET 2.497100 8.876100 0.000000
      CHANNELS 3 Yrotation Xrotation Zrotation
      JOINT LeftShoulder
      {
       OFFSET 12.289200 0.000000 0.000000
       CHANNELS 3 Yrotation Xrotation Zrotation
       JOINT LeftElbow
       {
        OFFSET 0.000000 -28.194900 0.000000
        CHANNELS 3 Yrotation Xrotation Zrotation
        JOINT LeftWrist
        {
         OFFSET 0.000000 -23.009700 0.007900
         CHANNELS 3 Yrotation Xrotation Zrotation
         End Site
         {
          OFFSET 0.000000 -17.151500 0.000000
         }
        }
       }
      }
     }
    }
   }
  }
 }
 JOINT RightHip
 {
  OFFSET -11.777600 0.056700 0.005700
  CHANNELS 3 Yrotation Xrotation Zrotation
  JOINT RightKnee
  {
   OFFSET 0.000000 -39.966000 -0.004200
   CHANNELS 3 Yrotation Xrotation Zrotation
   JOINT RightAnkle
   {
    OFFSET 0.000000 -41.981900 0.027400
    CHANNELS 3 Yrotation Xrotation Zrotation
    JOINT RightToe
    {
     OFFSET 0.000000 -9.910600 16.950100
     CHANNELS 3 Yrotation Xrotation Zrotation
     End Site
     {
      OFFSET 0.000000 -1.461000 6.191600
     }
    }
   }
  }
 }
 JOINT LeftHip
 {
  OFFSET 11.777600 0.056700 0.005700
  CHANNELS 3 Yrotation Xrotation Zrotation
  JOINT LeftKnee
  {
   OFFSET 0.000000 -39.966000 -0.004200
   CHANNELS 3 Yrotation Xrotation Zrotation
   JOINT LeftAnkle
   {
    OFFSET 0.000000 -41.981900 0.027400
    CHANNELS 3 Yrotation Xrotation Zrotation
    JOINT LeftToe
    {
     OFFSET 0.000000 -9.910600 16.950100
     CHANNELS 3 Yrotation Xrotation Zrotation
     End Site
     {
      OFFSET 0.000000 -1.461000 6.191600
     }
    }
   }
  }
 }
}
MOTION
Frames: 8
Frame Time: 0.008333
0.000000 91.618700 0.000000 0.000000 -5.767877 0.000000 0.000000 11.653817 0.000000 0.000000 -5.885947 0.000000 0.000000 -0.000000 0.000000 0.000000 -0.000000 0.000000 0.000000 12.528835 0.000000 0.000000 0.711642 0.000000 0.000000 -0.000000 0.000000 0.000000 0.000000 -90.000000 0.000000 -2.309062 0.000000 0.000000 2.309062 0.000000 0.000000 -0.000000 0.000000 0.000000 -0.000000 90.000000 0.000000 -2.309062 0.000000 0.000000 2.309062 0.000000 0.000000 8.520406 0.000000 0.000000 1.905762 0.000000 -0.000000 -4.658285 0.000000 0.000000 -0.000000 0.000000 0.000000 8.520406 0.000000 0.000000 1.905762 0.000000 -0.000000 -4.658285 0.000000 0.000000 -0.000000 0.000000
7.326997 152.544593 21.713732 173.272648 -45.766458 -1.946744 4.098371 25.534438 1.142382 0.585453 4.126209 0.075138 0.938495 6.582807 0.140282 3.152849 20.952132 0.860988 0.958005 13.240643 3.001674 0.322664 -11.780696 2.931364 3.804374 -3.323906 1.649294 13.918965 -23.616511 -9.960387 22.639862 -50.202996 -1.286471 8.806248 -11.370578 -16.796025 -8.468832 -6.454795 -0.980134 -7.695604 -22.077535 5.013586 -9.486213 -48.746776 -18.907582 10.707890 -13.950377 12.192379 8.122797 -32.121516 1.564925 -85.768297 86.198711 -88.077241 1.060941 -26.482422 8.326219 -0.022448 -0.105768 -0.020420 0.010077 -29.992749 -4.517655 152.354292 67.306108 164.018864 2.032711 18.052733 -0.275575 0.425092 -12.789951 -3.646678
6.231605 145.549818 23.380315 173.355719 -45.853636 -2.002616 4.097284 25.560225 1.142885 0.594478 4.144035 0.071156 0.952536 6.609271 0.134268 3.188859 20.984067 0.845269 0.944742 13.184046 3.090947 0.298001 -11.804132 2.984070 3.863184 -3.201167 1.642459 13.908842 -23.714328 -10.024931 22.444620 -50.281082 -1.231387 8.744696 -11.525945 -16.821713 -8.467945 -6.369100 -0.969722 -7.714428 -22.266491 5.034407 -9.461880 -48.842746 -18.947807 10.530847 -13.663938 12.216418 8.039180 -32.059235 1.571945 -86.203315 86.210552 -88.536947 1.023039 -26.546715 8.346648 -0.001361 -0.067448 -0.000791 -0.090631 -30.000598 -4.395772 152.453064 67.375476 164.054508 1.950823 18.442654 -0.208137 0.002221 0.083126 0.001289
5.330190 139.786198 24.763110 173.448565 -45.938749 -2.067234 4.089539 25.577925 1.144216 0.589268 4.177200 0.074677 0.947408 6.635600 0.140378 3.249921 21.011302 0.801285 0.942709 13.119202 3.173261 0.287574 -11.897354 3.088862 3.917731 -3.074535 1.638528 13.909867 -23.814633 -10.096515 22.253050 -50.397587 -1.207249 8.669715 -11.662485 -16.825715 -8.469701 -6.281396 -0.962417 -7.723523 -22.451325 5.053071 -9.439804 -48.954575 -18.985234 10.354768 -13.378299 12.228083 7.940476 -31.999232 1.586883 -86.561129 86.210665 -88.927602 1.002173 -26.613442 8.366366 0.006605 -0.029435 0.003861 -0.194593 -30.012229 -4.271978 152.527713 67.444017 164.067905 1.864081 18.834786 -0.129089 -0.018159 0.051063 -0.010624
4.679764 135.626938 25.768079 173.488572 -46.062327 -2.091763 4.123526 25.625771 1.146643 0.599615 4.198307 0.070393 0.924551 6.679714 0.155850 3.318802 21.038308 0.756132 0.950126 13.050056 3.250286 0.258474 -11.972585 3.201819 3.964957 -2.941330 1.640516 13.916108 -23.914802 -10.173525 22.096756 -50.596955 -1.236844 8.565518 -11.735053 -16.799707 -8.481072 -6.187696 -0.956595 -7.727207 -22.629819 5.073598 -9.416463 -49.083027 -19.019942 10.184228 -13.090767 12.227776 7.868642 -31.900894 1.614351 -86.782120 86.196282 -89.189365 0.997282 -26.657069 8.383183 0.010339 -0.008271 0.006044 -0.253763 -29.987868 -4.158458 152.628486 67.496466 164.120020 1.766760 19.183365 -0.067122 -0.021193 0.042283 -0.012397
4.267978 133.000279 26.414528 173.517836 -46.196439 -2.102259 4.166245 25.677993 1.142843 0.625697 4.207228 0.058535 0.981090 6.710442 0.126966 3.326032 21.091153 0.782472 0.911809 13.012736 3.349362 0.264539 -12.035566 3.269987 4.005325 -2.804153 1.651447 13.920186 -24.007882 -10.258801 21.938197 -50.793455 -1.248825 8.464975 -11.826155 -16.784401 -8.504150 -6.087639 -0.947945 -7.728322 -22.801226 5.095612 -9.381812 -49.226095 -19.058287 10.015907 -12.800710 12.217067 7.798228 -31.791427 1.644726 -86.921971 86.168392 -89.377903 1.003429 -26.691910 8.395657 0.009688 0.007948 0.005665 -0.292945 -29.958722 -4.063711 152.718948 67.543139 164.167620 1.669242 19.524605 0.003082 -0.023064 0.032883 -0.013489
4.039529 131.555630 26.784663 173.540183 -46.337268 -2.101102 4.209096 25.733249 1.129254 0.636940 4.231071 0.054582 1.018443 6.739151 0.109501 3.355480 21.139342 0.783563 0.919757 12.959096 3.420997 0.221812 -12.074668 3.369824 4.050141 -2.668987 1.665642 13.915730 -24.090492 -10.351172 21.750428 -50.941892 -1.207687 8.387887 -11.981839 -16.785553 -8.524555 -5.985410 -0.938696 -7.726504 -22.968528 5.115007 -9.336556 -49.379022 -19.103431 9.847812 -12.513700 12.194934 7.759406 -31.662332 1.662248 -86.854317 86.125226 -89.338467 1.006543 -26.752659 8.406120 0.002956 0.016021 0.001728 -0.312078 -29.928813 -3.990035 152.806131 67.583340 164.217505 1.582232 19.856600 0.077690 -0.025478 0.025421 -0.014900
3.929119 130.868913 26.977261 173.564655 -46.489813 -2.100755 4.246824 25.799664 1.113352 0.647645 4.256873 0.050818 1.035134 6.777541 0.103880 3.395693 21.185480 0.769972 0.931417 12.910422 3.487013 0.185191 -12.112415 3.463218 4.099833 -2.543253 1.677581 13.900134 -24.164320 -10.444193 21.569408 -51.102487 -1.159357 8.313319 -12.148415 -16.777157 -8.536029 -5.888761 -0.932453 -7.722024 -23.132652 5.129841 -9.287465 -49.538544 -19.152014 9.732290 -12.238107 12.173848 7.717723 -31.523626 1.683784 -86.751987 86.076377 -89.267186 1.019500 -26.798652 8.418603 -0.006618 0.028554 -0.003870 -0.321579 -29.890431 -3.931353 152.887847 67.622093 164.268787 1.510975 20.189469 0.150958 -0.028573 0.017862 -0.016709
